<svg width="32" height="32" viewBox="0 0 32 32" fill="none" xmlns="http://www.w3.org/2000/svg">
  <!-- Gradient definitions -->
  <defs>
    <linearGradient id="faviconGradient" x1="0%" y1="0%" x2="100%" y2="100%">
      <stop offset="0%" style="stop-color:#6366f1;stop-opacity:1" />
      <stop offset="50%" style="stop-color:#8b5cf6;stop-opacity:1" />
      <stop offset="100%" style="stop-color:#ec4899;stop-opacity:1" />
    </linearGradient>
    <radialGradient id="faviconCenter" cx="50%" cy="50%" r="50%">
      <stop offset="0%" style="stop-color:#ffffff;stop-opacity:1" />
      <stop offset="100%" style="stop-color:#f3f4f6;stop-opacity:1" />
    </radialGradient>
  </defs>
  
  <!-- Background circle -->
  <circle cx="16" cy="16" r="14" fill="url(#faviconGradient)" opacity="0.15"/>
  
  <!-- Main shape - simplified for small size -->
  <g transform="translate(16, 16)">
    <!-- Outer ring segments -->
    <path d="M 0,-10 A 10,10 0 0,1 8.66,5 L 6.5,3.75 A 7.5,7.5 0 0,0 0,-7.5 Z" fill="url(#faviconGradient)"/>
    <path d="M 8.66,5 A 10,10 0 0,1 -8.66,5 L -6.5,3.75 A 7.5,7.5 0 0,0 6.5,3.75 Z" fill="url(#faviconGradient)" opacity="0.8"/>
    <path d="M -8.66,5 A 10,10 0 0,1 0,-10 L 0,-7.5 A 7.5,7.5 0 0,0 -6.5,3.75 Z" fill="url(#faviconGradient)" opacity="0.6"/>
    
    <!-- Center circle -->
    <circle cx="0" cy="0" r="4" fill="url(#faviconCenter)"/>
    
    <!-- Central dot -->
    <circle cx="0" cy="0" r="2" fill="url(#faviconGradient)"/>
  </g>
</svg>