<svg width="200" height="200" viewBox="0 0 200 200" fill="none" xmlns="http://www.w3.org/2000/svg">
  <!-- Outer circle gradient -->
  <defs>
    <linearGradient id="gradient1" x1="0%" y1="0%" x2="100%" y2="100%">
      <stop offset="0%" style="stop-color:#6366f1;stop-opacity:1" />
      <stop offset="100%" style="stop-color:#8b5cf6;stop-opacity:1" />
    </linearGradient>
    <linearGradient id="gradient2" x1="0%" y1="0%" x2="100%" y2="100%">
      <stop offset="0%" style="stop-color:#8b5cf6;stop-opacity:1" />
      <stop offset="100%" style="stop-color:#ec4899;stop-opacity:1" />
    </linearGradient>
    <radialGradient id="centerGradient" cx="50%" cy="50%" r="50%">
      <stop offset="0%" style="stop-color:#ffffff;stop-opacity:1" />
      <stop offset="100%" style="stop-color:#f3f4f6;stop-opacity:1" />
    </radialGradient>
  </defs>
  
  <!-- Background circle -->
  <circle cx="100" cy="100" r="90" fill="url(#gradient1)" opacity="0.1"/>
  
  <!-- Main logo shape - stylized "O" for Fictioneer -->
  <g transform="translate(100, 100)">
    <!-- Outer ring -->
    <path d="M 0,-60 A 60,60 0 0,1 51.96,30 L 38.97,22.5 A 45,45 0 0,0 0,-45 Z" fill="url(#gradient1)"/>
    <path d="M 51.96,30 A 60,60 0 0,1 -51.96,30 L -38.97,22.5 A 45,45 0 0,0 38.97,22.5 Z" fill="url(#gradient2)"/>
    <path d="M -51.96,30 A 60,60 0 0,1 0,-60 L 0,-45 A 45,45 0 0,0 -38.97,22.5 Z" fill="#6366f1" opacity="0.8"/>
    
    <!-- Inner elements forming abstract "O" for Fictioneer -->
    <circle cx="0" cy="0" r="25" fill="url(#centerGradient)"/>
    <circle cx="0" cy="0" r="20" fill="none" stroke="url(#gradient1)" stroke-width="2" opacity="0.5"/>
    
    <!-- Central dot -->
    <circle cx="0" cy="0" r="8" fill="url(#gradient1)"/>
  </g>
  
  <!-- Decorative elements -->
  <circle cx="40" cy="40" r="3" fill="#8b5cf6" opacity="0.3"/>
  <circle cx="160" cy="40" r="3" fill="#ec4899" opacity="0.3"/>
  <circle cx="160" cy="160" r="3" fill="#6366f1" opacity="0.3"/>
  <circle cx="40" cy="160" r="3" fill="#8b5cf6" opacity="0.3"/>
</svg>